<?xml version="1.0" encoding="UTF-8"?>
<svg xmlns="http://www.w3.org/2000/svg" xmlns:xlink="http://www.w3.org/1999/xlink" width="200px" height="136px" viewBox="0 0 200 136" version="1.1">
<g id="surface1">
<path style=" stroke:none;fill-rule:nonzero;fill:rgb(3.921569%,3.921569%,13.725491%);fill-opacity:1;" d="M 38.433594 2.796875 C 39.09375 3.457031 39.753906 4.402344 39.757812 5.355469 C 39.761719 7.003906 37.828125 9.234375 34.253906 12.90625 C 19.355469 27.257812 11.863281 44.828125 11.914062 66.023438 C 11.96875 89.472656 19.851562 108.304688 35.171875 122.898438 C 38.394531 125.78125 39.714844 128.046875 39.722656 129.984375 C 39.722656 130.933594 39.066406 131.921875 38.410156 132.875 C 37.792969 133.535156 36.476562 134.199219 35.523438 134.199219 C 31.980469 134.207031 27.019531 130.015625 20.542969 121.859375 C 7.929688 106.394531 2.226562 89.320312 1.90625 66.046875 C 1.613281 42.765625 8.910156 26.976562 23.195312 10.675781 C 28.335938 4.851562 32.621094 1.824219 35.546875 1.816406 C 36.496094 1.816406 37.484375 2.140625 38.433594 2.796875 Z M 38.433594 2.796875 "/>
<path style=" stroke:none;fill-rule:nonzero;fill:rgb(3.921569%,3.921569%,13.725491%);fill-opacity:1;" d="M 116.691406 70.21875 C 111.09375 68.789062 134.066406 41.640625 93.234375 9.136719 C 93.234375 9.136719 98.59375 26.160156 71.582031 64.152344 C 44.554688 102.132812 83.597656 124.757812 83.597656 124.757812 C 83.597656 124.757812 65.273438 114.992188 86.574219 80.214844 C 90.386719 73.90625 95.375 68.195312 101.570312 55.335938 C 101.570312 55.335938 107.054688 63.078125 104.191406 79.859375 C 99.910156 105.222656 122.753906 97.964844 123.109375 98.320312 C 131.089844 107.71875 116.5 124.238281 115.613281 124.757812 C 114.726562 125.261719 157.277344 99.152344 127.046875 59.859375 C 124.976562 61.929688 122.285156 71.652344 116.691406 70.21875 Z M 116.691406 70.21875 "/>
<path style=" stroke:none;fill-rule:nonzero;fill:rgb(3.921569%,3.921569%,13.725491%);fill-opacity:1;" d="M 161.589844 2.78125 C 160.929688 3.4375 160.269531 4.386719 160.265625 5.339844 C 160.265625 6.984375 162.195312 9.21875 165.769531 12.890625 C 180.667969 27.238281 188.164062 44.8125 188.113281 66.007812 C 188.054688 89.457031 180.175781 108.289062 164.855469 122.882812 C 161.632812 125.761719 160.308594 128.027344 160.304688 129.96875 C 160.304688 130.917969 160.957031 131.90625 161.613281 132.859375 C 162.234375 133.519531 163.550781 134.179688 164.5 134.183594 C 168.046875 134.191406 173.003906 129.996094 179.484375 121.839844 C 192.09375 106.378906 197.796875 89.300781 198.117188 66.03125 C 198.414062 42.746094 191.113281 26.957031 176.832031 10.65625 C 171.691406 4.832031 167.40625 1.808594 164.480469 1.800781 C 163.53125 1.796875 162.542969 2.125 161.589844 2.78125 Z M 161.589844 2.78125 "/>
</g>
</svg>
