<?xml version="1.0" encoding="UTF-8"?>
<svg id="Calque_1" xmlns="http://www.w3.org/2000/svg" version="1.1" viewBox="0 0 100 100">
  <!-- Generator: Adobe Illustrator 29.4.0, SVG Export Plug-In . SVG Version: 2.1.0 Build 152)  -->
  <defs>
    <style>
      .st0, .st1, .st2, .st3, .st4 {
        stroke-miterlimit: 10;
      }

      .st0, .st2 {
        stroke: #000;
      }

      .st0, .st3 {
        fill: none;
      }

      .st1 {
        stroke-width: 2px;
      }

      .st1, .st3, .st4 {
        stroke: #1d1d1b;
      }

      .st1, .st4 {
        fill: #54afe3;
        stroke-linecap: round;
      }

      .st5 {
        fill: #fff;
      }

      .st4 {
        stroke-width: 1.5px;
      }

      .st6 {
        fill: #1d1d1b;
      }
    </style>
  </defs>
  <path class="st1" d="M50,10.8c-21.9,0-39.6,17.5-39.6,39.2s17.7,39.2,39.6,39.2,39.6-17.5,39.6-39.2S71.9,10.8,50,10.8ZM50,86.2c-20.1,0-36.5-16.2-36.5-36.2S29.9,13.8,50,13.8s36.5,16.2,36.5,36.2-16.4,36.2-36.5,36.2Z"/>
  <path class="st4" d="M50,23.7c-14.6,0-26.5,11.8-26.5,26.3s11.9,26.3,26.5,26.3,26.5-11.8,26.5-26.3-11.9-26.3-26.5-26.3ZM50,73.9c-13.3,0-24.1-10.7-24.1-23.9s10.8-23.9,24.1-23.9,24.1,10.7,24.1,23.9-10.8,23.9-24.1,23.9Z"/>
  <rect class="st6" x="76.1" y="46.9" width="10.4" height="6.2"/>
  <rect class="st6" x="13.5" y="46.9" width="10.6" height="6.2"/>
  <g>
    <path d="M23.1,39.2l-1.1,3.2-1.3-.4v-.3c0,0-2.7-.8-2.7-.8v.3c0,0-1.4-.4-1.4-.4l.6-2,1.3.4v.3c0,0,2.7.8,2.7.8l.3-.8-.9-.2.3-.8s2.2.6,2.2.6Z"/>
    <path d="M22.9,36.7l.7-.9c0,0,.3.2.4.4,0,0,.2.3.2.4v1c-.2.5-.6.9-1.1,1s-1,0-1.6-.2-1-.5-1.2-1c-.2-.4-.3-.9,0-1.3.2-.4.5-.7,1-.9.5,0,1.1,0,1.8.2l-.9,1.8c.6.2,1,.2,1.1,0,0-.2,0-.3-.2-.5,0,0-.2,0-.2,0ZM21.7,37.1l.3-.7h-.6c-.2,0-.3,0-.3.2s0,.2,0,.3.3.2.5.3h0Z"/>
    <path d="M22.8,33.5l-.7.8c-.3-.3-.4-.6-.4-.9s0-.7.4-1.1c0,0,.2-.3.3-.4,0,0,.2-.2.3-.3.2-.2.4-.3.6-.3h.5c.2,0,.4,0,.7.3l1,.5.2-.3,1.1.6-.9,1.4h-.2c0,.2,0,.5-.2.8s-.5.5-.8.5-.6,0-.9-.2-.5-.4-.6-.7c0-.3,0-.6.2-.9.2-.3.4-.5.6-.6h0c-.2-.2-.4-.2-.5-.3h-.3c0,0-.2,0-.3.2,0,.2,0,.4,0,.6,0,0,0,.3,0,.3ZM24.9,33.6l-.6-.3c0,0-.3,0-.3.2v.3s0,.2.3.3h.7s0-.3,0-.4h0Z"/>
    <path d="M28.1,30.9l-1.3,1.6-1-.7.2-.3-1.2-.8-.2.3-1-.7,1-1.3.8.6c-.2-.2-.3-.4-.3-.6v-.5c0,0,0-.3.3-.5l1.4,1h0c-.2.2-.3.4-.3.5,0,.2,0,.3,0,.4,0,0,.2.2.4.4l.2-.3,1,.7v.2s0,0,0,0Z"/>
    <path d="M30.2,28.7l-1.5,1.5-.9-.8.2-.2-1.1-1-.2.2-.9-.8,1.2-1.2.4.3c0-.5,0-.9.4-1.1.2-.2.5-.3.9-.2s.7.3,1.2.7l.7.7.2-.2.9.8-1.2,1.2-1.3-1.2c-.3-.2-.5-.4-.6-.5h-.3s0,.2,0,.4l.9.8.3-.3.9.8h0Z"/>
    <path d="M34.4,25.5l-1,.6-3.3-2.8h-.2c0,0-.8-.9-.8-.9l1.7-1.1.8,1.1h-.2c0,0,1.8,1.8,1.8,1.8l-.9-2.2h-.2c0,0-.8-.9-.8-.9l1.4-.9.8,1.1h-.2c0,0,1.9,1.8,1.9,1.8l-1-2.2h-.2c0,0-.8-.9-.8-.9l1.3-.8.8,1.1h-.2c0,0,1.6,4,1.6,4l-1,.6-1.7-1.4.8,2s-.3,0-.3,0Z"/>
    <path d="M38.7,21.8l1.2-.3v.5c0,.2,0,.3-.2.5-.2.3-.4.5-.8.7-.6.2-1.1.3-1.5,0-.5-.2-.8-.6-1.1-1.1s-.3-1-.2-1.5.4-.8.9-1,.9-.2,1.4,0,.8.6,1.2,1.3l-2,.8c.3.5.6.8.9.6.2,0,.2-.3.2-.5ZM37.5,21.3l.7-.3h0c0-.3-.2-.4-.3-.5,0,0-.2,0-.4,0,0,0-.2,0-.2.3s0,.3.2.5h0Z"/>
    <path d="M42.3,21.8l-1.7.5-.3-1.1h.3l-.9-2.9h-.3c0,0-.3-1-.3-1l1.7-.5.6,1.8c.2-.3.4-.4.8-.5.4,0,.8,0,1.2.2s.7.7.8,1.2v1.5c-.2.4-.4.7-.8.8-.3,0-.7,0-1,0v.2h0ZM41.7,20c.2.5.4.8.7.7.3,0,.4-.4.2-.9,0-.3-.2-.4-.3-.6,0,0-.3,0-.4,0-.2,0-.2,0-.3.3v.6h0Z"/>
    <path d="M47.9,20.8h-1.8c0,0,0-1.2,0-1.2h.3l-.2-2.7h-.3v-1.3h1.9c.4,0,.8,0,1,0,.3,0,.5.2.8.4.2.2.5.5.6.9,0,.2.2.4.2.6v2c0,.4-.3.7-.5.9-.2.2-.4.4-.7.4s-.6,0-1.2.2h0ZM47.6,16.8l.2,2.7h0c.4,0,.6-.2.7-.5v-1.7c0-.2-.2-.4-.3-.5s-.3-.2-.6,0h0Z"/>
    <path d="M53.1,19.7l1.1.3c0,.2-.2.3-.3.4s-.2.2-.4.3c-.3.2-.6.2-1,.2-.6,0-1.1-.3-1.4-.7-.3-.4-.4-.9-.3-1.5,0-.6.3-1,.6-1.4s.8-.5,1.3-.5.9.2,1.2.6.4.9.3,1.7l-2.1-.2c0,.6,0,.9.4,1,.2,0,.4,0,.5-.4v.2h0ZM52.4,18.6h.8v-.5c0,0-.2-.2-.3-.2s-.2,0-.3.2c0,0,0,.3-.2.5h0Z"/>
    <path d="M56.7,21.5l-1.1-.2-.4-2.7h-.3l.3-1.2,1.9.4-.3,1.1h-.3v1.4l.8-1.3h-.3l.3-1.2,1.4.3-.3,1.1h-.3l-1.6,2.3h.2,0Z"/>
    <path d="M60.5,21.3l1,.6c0,0-.2.3-.4.4s-.3.2-.5.2c-.3,0-.7,0-1,0-.6-.2-1-.5-1.1-1-.2-.4,0-.9,0-1.5.2-.5.5-.9,1-1.2.4-.3.9-.3,1.4,0,.5.2.8.5,1,.9s0,1,0,1.7l-2-.7c-.2.6-.2.9,0,1,.2,0,.4,0,.6-.3ZM60,20.1l.8.3h0v-.6c0,0,0-.2-.2-.3s-.2,0-.4,0c0,0-.2.3-.3.5h0Z"/>
    <path d="M63.1,23.7l-1.8-.8.6-1.1h.3c0,0,1.5-2.5,1.5-2.5h-.3c0,0,.6-1.2.6-1.2l1.5.7-2,3.7h.2c0,0-.6,1.1-.6,1.1h0Z"/>
    <path d="M64.5,22.3c.3-.5.7-.8,1.2-.9s1,0,1.5.2c.5.3.8.7.9,1.2,0,.5,0,1-.4,1.5-.3.5-.8.8-1.3.9s-1,0-1.5-.2c-.5-.3-.8-.7-.9-1.2,0-.5,0-1,.4-1.5h0ZM65.7,22.9c-.3.5-.4.8,0,1s.6,0,.9-.5c.2-.2.2-.4.3-.6,0-.2,0-.3-.2-.4h-.4c-.2,0-.3.2-.5.5h0Z"/>
    <path d="M68.5,23.9l.8-.9,1.3,1.1-.2.2c.4,0,.7,0,.9.3.3.2.4.6.4,1s-.3.9-.7,1.4c-.4.5-.9.7-1.3.8-.5,0-.9,0-1.2-.3-.3-.2-.4-.5-.4-.8l-.6.6.3.2-.8.9-1.6-1.3.8-.9.2.2,2.2-2.4-.2-.2h0ZM69.3,25.5c-.2.2-.3.4-.3.5v.4c.2.2.6,0,1-.4s.5-.7.2-.9c0,0-.2,0-.4,0-.2,0-.3.2-.6.4h0Z"/>
    <path d="M71.5,29.9l-1.3-1.5,1-.8.2.2,1.2-.9-.2-.2,1-.8,1.1,1.3-.4.3c.2,0,.4,0,.7,0,.2,0,.4.2.5.3.3.3.3.7,0,1.1.7,0,1.2,0,1.4.5.2.2.2.4.2.6s0,.4-.3.6c-.2.2-.4.4-.8.7l-.7.5.2.3-1,.8-1.1-1.3,1.3-1c.3-.3.6-.5.6-.5v-.3c0,0-.3-.2-.5-.2l-.9.7.2.3-1,.8-1.1-1.3,1.3-1c.3-.3.6-.4.6-.5v-.3c0,0-.2-.2-.5-.2l-.9.7.2.3-1,.7h0Z"/>
    <path d="M76.4,34.5l.4,1h-1c-.3,0-.6-.3-.8-.6-.3-.5-.4-1-.2-1.4s.5-.8,1.1-1.1c.5-.3,1.1-.4,1.6-.3s.9.3,1.2.7c.3.4.3.8,0,1.3-.2.4-.6.8-1.3,1.2l-1.1-1.7c-.6.3-.8.6-.6.9,0,0,.3.2.6,0h0ZM76.9,33.2l.4.6h0c.2,0,.3-.2.4-.3v-.3s-.2-.2-.3,0-.4,0-.6.2h0v-.2h0Z"/>
    <path d="M76.9,38l-.8-1.8,1.2-.5v.3l1.5-.5v-.3l1-.5.7,1.5-.5.2c.5.2.8.4,1,.7v.8c-.2.2-.6.5-1.2.7l-1,.4v.3l-1,.5-.7-1.5,1.7-.7c.4,0,.6-.3.7-.3v-.3s-.2-.2-.3-.3l-1.2.5.2.3-1.2.5h0Z"/>
    <path d="M79.7,41.6l-1.2.3s-.2-.2-.3-.3c0,0-.2-.3-.3-.4v-.5c0-.2.2-.3.3-.4,0,0,.2,0,.2-.2h.3c.2,0,.5-.2,1-.3l.7-.2v-.3l1.1-.3v.3l.7-.2,1.4,1-1.6.4.2.5-1.2.3-.2-.5-.8.2c-.2,0-.4,0-.5.2v.2s0,.2.2.3h0Z"/>
  </g>
  <path class="st0" d="M47.3,90"/>
  <path class="st0" d="M49.6,10"/>
  <polygon class="st2" points="49.8 77.9 45.1 79.4 50 81 54.9 79.5 49.8 77.9"/>
  <path class="st2" d="M53,81.6l-3,.9-3.1-.9v1.1s1.1,1.2,3,1.2,3-1.1,3.1-1.2v-1.1h0Z"/>
  <path d="M45.4,79.6v.8s.2,0,.2.3v.3l.2,3.5s-.2.2-.4.2-.3-.2-.4-.2l.2-3.5v-.3c0-.3,0-.2.2-.3v-.9l.3.2h-.3Z"/>
  <g>
    <line class="st3" x1="69.7" y1="62.7" x2="29.7" y2="62.7"/>
    <line class="st3" x1="32.5" y1="51.1" x2="29.7" y2="62.7"/>
    <line class="st3" x1="32.5" y1="34" x2="32.5" y2="51.1"/>
    <line class="st3" x1="67.2" y1="34.1" x2="32.9" y2="34"/>
    <line class="st3" x1="66.7" y1="50.5" x2="66.8" y2="34.1"/>
    <line class="st3" x1="69.7" y1="62.7" x2="66.7" y2="50.5"/>
    <line class="st3" x1="32.5" y1="50.6" x2="66.7" y2="50.5"/>
    <line class="st3" x1="69" y1="59.8" x2="30.4" y2="59.7"/>
    <line class="st3" x1="30.9" y1="57.6" x2="68.5" y2="57.7"/>
    <line class="st3" x1="67.9" y1="55.5" x2="31.5" y2="55.5"/>
    <line class="st3" x1="32.1" y1="52.9" x2="67.4" y2="53.1"/>
    <line class="st3" x1="36.7" y1="50.6" x2="35.5" y2="59.7"/>
    <line class="st3" x1="41" y1="50.6" x2="40.1" y2="59.8"/>
    <line class="st3" x1="45.1" y1="50.6" x2="44.9" y2="57.7"/>
    <line class="st3" x1="49.4" y1="50.5" x2="49.4" y2="57.7"/>
    <line class="st3" x1="54.1" y1="50.5" x2="54.4" y2="57.7"/>
    <line class="st3" x1="58.6" y1="50.5" x2="58.6" y2="53.1"/>
    <line class="st3" x1="62.9" y1="50.5" x2="64.2" y2="59.8"/>
    <line class="st3" x1="36.6" y1="40.4" x2="52.1" y2="40.4"/>
    <line class="st3" x1="36.5" y1="42.3" x2="45" y2="42.3"/>
    <line class="st3" x1="36.5" y1="44.4" x2="52.1" y2="44.3"/>
    <line class="st3" x1="47.6" y1="42.3" x2="63" y2="42.3"/>
    <line class="st3" x1="54.4" y1="44.1" x2="63" y2="44.1"/>
    <line class="st3" x1="54.6" y1="40.4" x2="63" y2="40.4"/>
    <line class="st3" x1="36.8" y1="36.3" x2="35.5" y2="37.6"/>
    <line class="st3" x1="36.9" y1="38.6" x2="35.5" y2="37.6"/>
    <line class="st3" x1="41.7" y1="36" x2="39.7" y2="38.7"/>
    <line class="st3" x1="44.3" y1="36.4" x2="45.7" y2="37.4"/>
    <line class="st3" x1="44.5" y1="38.7" x2="45.7" y2="37.4"/>
    <line class="st3" x1="54.8" y1="46.5" x2="53.2" y2="47.7"/>
    <line class="st3" x1="54.6" y1="48.8" x2="53.2" y2="47.7"/>
    <line class="st3" x1="59.3" y1="46.1" x2="57.5" y2="48.9"/>
    <line class="st3" x1="62.3" y1="46.5" x2="63.6" y2="47.6"/>
    <line class="st3" x1="62.5" y1="48.8" x2="63.6" y2="47.6"/>
    <line class="st3" x1="44.1" y1="59.8" x2="43.1" y2="62.7"/>
    <line class="st3" x1="54.5" y1="59.8" x2="56.2" y2="62.7"/>
    <line class="st3" x1="58.6" y1="53.1" x2="58.7" y2="55.5"/>
    <line class="st3" x1="59" y1="57.7" x2="58.8" y2="55.5"/>
  </g>
  <g>
    <path class="st5" d="M17.6,50.7h.8v1.3h-3.2c0-.5,0-.8.2-1.1,0-.2.2-.3.3-.5s.3-.3.5-.5c.4-.3.6-.5.7-.6,0,0,.2-.2.2-.4s0-.2,0-.3-.2,0-.3,0c-.3,0-.5.2-.5.6h-1c0-.5.2-.8.5-1s.7-.3,1.1-.3.9,0,1.2.3.5.5.5.9,0,.4-.2.6c-.2.2-.5.4-.9.6-.4.2-.6.3-.7.4,0,0-.2.2-.3.3h1.3v-.3h0Z"/>
    <path class="st5" d="M18.9,50c0-.7.2-1.1.5-1.4.3-.4.8-.6,1.1-.6s.9.2,1.2.6c.3.4.5.9.5,1.4s-.2,1.1-.5,1.5c-.3.4-.8.5-1.1.5s-.9-.2-1.1-.6c-.3-.4-.5-.9-.5-1.4h0ZM20.2,50c0,.5,0,.8,0,1,0,.2.2.2.3.2s.2,0,.3-.2c0-.2,0-.5,0-1s0-.9,0-1c0-.2-.2-.2-.3-.2s-.2,0-.3.2c0,.2,0,.5,0,1Z"/>
  </g>
  <g>
    <path class="st5" d="M80,50.5h.8v1.3h-3.2c0-.5,0-.8.2-1.1,0-.2.2-.3.3-.5s.3-.3.5-.5c.4-.3.6-.5.7-.6s.2-.2.2-.4v-.3c0,0-.2,0-.3,0-.3,0-.5.2-.5.6h-1c0-.5.2-.8.5-1s.7-.3,1.1-.3.9,0,1.2.3c.3.2.5.5.5.9s0,.4-.2.6c-.2.2-.5.4-.9.6-.4.2-.6.3-.7.4,0,0-.2.2-.3.3h1.3v-.3h0Z"/>
    <path class="st5" d="M81.6,50.4h1.1c0,.2.3.3.5.3h.4s.2-.2.2-.3,0-.3-.2-.3h-.4c-.2,0-.4,0-.6.2l-.9-.3v-1.8h3v1h-.7v-.2h-1.6v.7c.2-.2.5-.2.9-.2s.8,0,1.1.3.4.5.4.9-.2.6-.5.9-.7.3-1.3.3-.9,0-1.2-.3c-.3-.2-.5-.4-.6-.7l.3-.3v-.2Z"/>
  </g>
  <line class="st3" x1="58.9" y1="57.7" x2="59" y2="59.8"/>
  <line class="st3" x1="54.5" y1="57.7" x2="54.5" y2="59.9"/>
</svg>