<?xml version="1.0" encoding="UTF-8"?>
<svg id="Calque_1" xmlns="http://www.w3.org/2000/svg" version="1.1" viewBox="0 0 100 100">
  <!-- Generator: Adobe Illustrator 29.4.0, SVG Export Plug-In . SVG Version: 2.1.0 Build 152)  -->
  <defs>
    <style>
      .st0 {
        stroke: #000;
      }

      .st0, .st1, .st2, .st3, .st4 {
        stroke-miterlimit: 10;
      }

      .st0, .st4 {
        fill: none;
      }

      .st1 {
        stroke-width: 1.5px;
      }

      .st1, .st2, .st3, .st4 {
        stroke: #fff;
      }

      .st1, .st3 {
        fill: #54afe3;
        stroke-linecap: round;
      }

      .st2, .st5 {
        fill: #fff;
      }

      .st3 {
        stroke-width: 2px;
      }
    </style>
  </defs>
  <path class="st3" d="M50.1,9.9c-22.3,0-40.4,17.9-40.4,40s18.1,40,40.4,40,40.4-17.9,40.4-40S72.4,9.9,50.1,9.9ZM50.1,86.8c-20.5,0-37.2-16.5-37.2-36.9S29.6,13,50.1,13s37.2,16.5,37.2,36.9-16.7,36.9-37.2,36.9Z"/>
  <path class="st1" d="M50.1,23.1c-14.9,0-27,12-27,26.8s12.1,26.8,27,26.8,27-12,27-26.8-12.1-26.8-27-26.8ZM50.1,74.3c-13.6,0-24.6-10.9-24.6-24.4s11-24.4,24.6-24.4,24.6,10.9,24.6,24.4-11,24.4-24.6,24.4Z"/>
  <rect class="st5" x="76.7" y="46.7" width="10.6" height="6.3"/>
  <rect class="st5" x="12.9" y="46.7" width="10.8" height="6.3"/>
  <g>
    <path class="st5" d="M22.7,38.9l-1.1,3.3-1.3-.4v-.3c.1,0-2.8-.8-2.8-.8v.3c-.1,0-1.4-.4-1.4-.4l.6-2,1.3.4v.3c-.1,0,2.8.8,2.8.8l.3-.8-.9-.2.3-.8s2.2.6,2.2.6Z"/>
    <path class="st5" d="M22.5,36.3l.7-.9c.1,0,.3.2.4.4,0,0,.2.3.2.4v1c-.2.5-.6.9-1.1,1s-1,0-1.6-.2-1-.5-1.2-1c-.2-.4-.3-.9,0-1.3.2-.4.5-.7,1-.9.5,0,1.1,0,1.8.2l-.9,1.8c.6.2,1,.2,1.1,0,0-.2,0-.3-.2-.5,0,0-.2,0-.2,0ZM21.2,36.7l.3-.7h-.6c-.2,0-.3,0-.3.2s0,.2.1.3.3.2.5.3h0Z"/>
    <path class="st5" d="M22.4,33.1l-.7.8c-.3-.3-.4-.6-.4-.9s.1-.7.4-1.1c.1-.1.2-.3.3-.4,0-.1.2-.2.3-.3.2-.2.4-.3.6-.3h.5c.2,0,.4.1.7.3l1,.5.2-.3,1.1.6-.9,1.4h-.2c0,.2,0,.5-.2.8s-.5.5-.8.5-.6,0-.9-.2-.5-.4-.6-.7c0-.3,0-.6.2-.9.2-.3.4-.5.6-.6h-.1c-.2-.2-.4-.2-.5-.3h-.3c-.1,0-.2,0-.3.2-.1.2-.1.4,0,.6,0,0,0,.3,0,.3ZM24.5,33.2l-.6-.3c-.1,0-.3,0-.3.2v.3s.1.2.3.3h.7s.1-.3,0-.4h-.1Z"/>
    <path class="st5" d="M27.8,30.4l-1.3,1.6-1-.7.2-.3-1.2-.8-.2.3-1-.7,1-1.3.8.6c-.2-.2-.3-.4-.3-.6v-.5c0-.1.1-.3.3-.5l1.4,1h0c-.2.2-.3.4-.3.5,0,.2,0,.3.1.4,0,.1.2.2.4.4l.2-.3,1,.7v.2s-.1,0-.1,0Z"/>
    <path class="st5" d="M29.9,28.2l-1.5,1.5-.9-.8.2-.2-1.1-1-.2.2-.9-.8,1.2-1.2.4.3c0-.5,0-.9.4-1.1.2-.2.5-.3.9-.2s.7.3,1.2.7l.7.7.2-.2.9.8-1.2,1.2-1.3-1.2c-.3-.2-.5-.4-.6-.5h-.3s-.1.2-.1.4l.9.8.3-.3.9.8h-.1Z"/>
    <path class="st5" d="M34.2,24.9l-1,.6-3.4-2.9h-.2c0,.1-.8-.9-.8-.9l1.7-1.1.8,1.1h-.2c0,.1,1.8,1.8,1.8,1.8l-.9-2.2h-.2c0,.1-.8-.9-.8-.9l1.4-.9.8,1.1h-.2c0,.1,1.9,1.8,1.9,1.8l-1-2.2h-.2c0,.1-.8-.9-.8-.9l1.3-.8.8,1.1h-.2c0,.1,1.6,4.1,1.6,4.1l-1,.6-1.7-1.4.8,2s-.3,0-.3,0Z"/>
    <path class="st5" d="M38.6,21.1l1.2-.3v.5c0,.2,0,.3-.2.5-.2.3-.4.5-.8.7-.6.2-1.1.3-1.5,0-.5-.2-.8-.6-1.1-1.1s-.3-1-.2-1.5.4-.8.9-1,.9-.2,1.4,0,.8.6,1.2,1.3l-2,.8c.3.5.6.8.9.6.2,0,.2-.3.2-.5ZM37.3,20.6l.7-.3h0c0-.3-.2-.4-.3-.5,0,0-.2-.1-.4,0,0,0-.2.1-.2.3s0,.3.2.5h0Z"/>
    <path class="st5" d="M42.2,21.1l-1.7.5-.3-1.1h.3l-.9-3h-.3c0,.1-.3-1-.3-1l1.7-.5.6,1.8c.2-.3.4-.4.8-.5.4-.1.8,0,1.2.2s.7.7.8,1.2v1.5c-.2.4-.4.7-.8.8-.3.1-.7,0-1,0v.2h0ZM41.6,19.3c.2.5.4.8.7.7.3,0,.4-.4.2-.9,0-.3-.2-.4-.3-.6,0-.1-.3-.1-.4-.1-.2,0-.2.1-.3.3v.6h0Z"/>
    <path class="st5" d="M48,20.1h-1.8c0,.1,0-1.2,0-1.2h.3l-.2-2.8h-.3v-1.3h1.9c.4-.1.8-.1,1,0,.3,0,.5.2.8.4.2.2.5.5.6.9,0,.2.2.4.2.6v2c0,.4-.3.7-.5.9-.2.2-.4.4-.7.4s-.6.1-1.2.2h0ZM47.7,16l.2,2.8h0c.4,0,.6-.2.7-.5v-1.7c0-.2-.2-.4-.3-.5s-.3-.2-.6-.1h0Z"/>
    <path class="st5" d="M53.3,19l1.1.3c0,.2-.2.3-.3.4s-.2.2-.4.3c-.3.2-.6.2-1,.2-.6,0-1.1-.3-1.4-.7-.3-.4-.4-.9-.3-1.5,0-.6.3-1,.6-1.4s.8-.5,1.3-.5.9.2,1.2.6.4.9.3,1.7l-2.1-.2c0,.6,0,.9.4,1,.2,0,.4-.1.5-.4v.2h.1ZM52.5,17.9h.8v-.5c0-.1-.2-.2-.3-.2s-.2,0-.3.2c0,.1,0,.3-.2.5h0Z"/>
    <path class="st5" d="M56.9,20.8l-1.1-.2-.4-2.8h-.3l.3-1.2,1.9.4-.3,1.1h-.3v1.4l.8-1.3h-.3l.3-1.2,1.4.3-.3,1.1h-.3l-1.6,2.3h.2,0Z"/>
    <path class="st5" d="M60.8,20.6l1,.6c0,.1-.2.3-.4.4s-.3.2-.5.2c-.3.1-.7,0-1,0-.6-.2-1-.5-1.1-1-.2-.4,0-.9,0-1.5.2-.5.5-.9,1-1.2.4-.3.9-.3,1.4-.1.5.2.8.5,1,.9s0,1,0,1.7l-2-.7c-.2.6-.2.9,0,1,.2,0,.4,0,.6-.3ZM60.3,19.4l.8.3h0v-.6c0-.1,0-.2-.2-.3s-.2,0-.4.1c0,.1-.2.3-.3.5h.1Z"/>
    <path class="st5" d="M63.5,23.1l-1.8-.8.6-1.1h.3c0,.1,1.5-2.6,1.5-2.6h-.3c0-.1.6-1.2.6-1.2l1.5.7-2,3.8h.2c0,.1-.6,1.1-.6,1.1h0Z"/>
    <path class="st5" d="M64.9,21.6c.3-.5.7-.8,1.2-.9s1,0,1.5.2c.5.3.8.7.9,1.2,0,.5,0,1-.4,1.5-.3.5-.8.8-1.3.9s-1,0-1.5-.2c-.5-.3-.8-.7-.9-1.2,0-.5,0-1,.4-1.5h.1ZM66.1,22.3c-.3.5-.4.8,0,1s.6,0,.9-.5c.2-.2.2-.4.3-.6,0-.2,0-.3-.2-.4h-.4c-.2,0-.3.2-.5.5h-.1Z"/>
    <path class="st5" d="M69,23.3l.8-.9,1.3,1.1-.2.2c.4,0,.7.1.9.3.3.2.4.6.4,1s-.3.9-.7,1.4c-.4.5-.9.7-1.3.8-.5,0-.9,0-1.2-.3-.3-.2-.4-.5-.4-.8l-.6.6.3.2-.8.9-1.6-1.3.8-.9.2.2,2.2-2.4-.2-.2h0ZM69.8,24.9c-.2.2-.3.4-.3.5v.4c.2.2.6,0,1-.4s.5-.7.2-.9c0,0-.2-.1-.4,0-.2,0-.3.2-.6.4h.1Z"/>
    <path class="st5" d="M72,29.4l-1.3-1.5,1-.8.2.2,1.2-.9-.2-.2,1-.8,1.1,1.3-.4.3c.2,0,.4,0,.7.1.2,0,.4.2.5.3.3.3.3.7,0,1.1.7,0,1.2.1,1.4.5.2.2.2.4.2.6s0,.4-.3.6c-.2.2-.4.4-.8.7l-.7.5.2.3-1,.8-1.1-1.3,1.3-1c.3-.3.6-.5.6-.5v-.3c0-.1-.3-.2-.5-.2l-.9.7.2.3-1,.8-1.1-1.3,1.3-1c.3-.3.6-.4.6-.5v-.3c0-.1-.2-.2-.5-.2l-.9.7.2.3-1,.7h0Z"/>
    <path class="st5" d="M77,34.1l.4,1h-1c-.3,0-.6-.3-.8-.6-.3-.5-.4-1-.2-1.4s.5-.8,1.1-1.1c.5-.3,1.1-.4,1.6-.3s.9.3,1.2.7c.3.4.3.8,0,1.3-.2.4-.6.8-1.3,1.2l-1.1-1.7c-.6.3-.8.6-.6.9,0,0,.3.2.6,0h.1ZM77.5,32.8l.4.6h0c.2,0,.3-.2.4-.3v-.3s-.2-.2-.3,0-.4,0-.6.2h0v-.2h0Z"/>
    <path class="st5" d="M77.5,37.7l-.8-1.8,1.2-.5v.3l1.5-.5v-.3l1-.5.7,1.5-.5.2c.5.2.8.4,1,.7v.8c-.2.2-.6.5-1.2.7l-1,.4v.3l-1,.5-.7-1.5,1.7-.7c.4,0,.6-.3.7-.3v-.3s-.2-.2-.3-.3l-1.2.5.2.3-1.2.5h0Z"/>
    <path class="st5" d="M80.4,41.3l-1.2.3s-.2-.2-.3-.3c0,0-.2-.3-.3-.4v-.5c0-.2.2-.3.3-.4,0,0,.2,0,.2-.2h.3c.2,0,.5-.2,1-.3l.7-.2v-.3l1.1-.3v.3l.7-.2,1.4,1-1.6.4.2.5-1.2.3-.2-.5-.8.2c-.2,0-.4,0-.5.2v.2s0,.2.2.3h0Z"/>
  </g>
  <path class="st0" d="M47.3,90.7"/>
  <path class="st0" d="M49.7,9.1"/>
  <polygon class="st2" points="49.9 78.4 45.1 79.9 50.1 81.5 55.1 80 49.9 78.4"/>
  <path class="st2" d="M53.2,82.1l-3.1.9-3.2-.9v1.1s1.1,1.2,3.1,1.2,3.1-1.1,3.2-1.2v-1.1h0Z"/>
  <path class="st5" d="M45.4,80.1v.8s.2,0,.2.3v.3l.2,3.6s-.2.2-.4.2-.3-.2-.4-.2l.2-3.6v-.3c0-.3,0-.2.2-.3v-.9l.3.2h-.3Z"/>
  <line class="st4" x1="71.1" y1="63.1" x2="30.3" y2="63.1"/>
  <line class="st4" x1="33.1" y1="51.2" x2="30.3" y2="63.1"/>
  <line class="st4" x1="33.2" y1="33.8" x2="33.1" y2="51.2"/>
  <line class="st4" x1="68.5" y1="33.9" x2="33.6" y2="33.8"/>
  <line class="st4" x1="68" y1="50.6" x2="68.1" y2="33.9"/>
  <line class="st4" x1="71.1" y1="63.1" x2="68" y2="50.6"/>
  <line class="st4" x1="33.1" y1="50.7" x2="68" y2="50.6"/>
  <line class="st4" x1="70.4" y1="60.1" x2="31" y2="60"/>
  <line class="st4" x1="31.5" y1="57.9" x2="69.9" y2="58"/>
  <line class="st4" x1="69.3" y1="55.7" x2="32.1" y2="55.7"/>
  <line class="st4" x1="32.7" y1="53.1" x2="68.7" y2="53.3"/>
  <line class="st4" x1="37.4" y1="50.7" x2="36.2" y2="60"/>
  <line class="st4" x1="41.8" y1="50.7" x2="40.9" y2="60.1"/>
  <line class="st4" x1="46" y1="50.7" x2="45.8" y2="58"/>
  <line class="st4" x1="50.4" y1="50.6" x2="50.4" y2="58"/>
  <line class="st4" x1="55.2" y1="50.6" x2="55.5" y2="58"/>
  <line class="st4" x1="59.8" y1="50.6" x2="59.8" y2="53.3"/>
  <line class="st4" x1="64.2" y1="50.6" x2="65.5" y2="60.1"/>
  <line class="st4" x1="37.3" y1="40.3" x2="53.1" y2="40.3"/>
  <line class="st4" x1="37.2" y1="42.2" x2="45.9" y2="42.2"/>
  <line class="st4" x1="37.2" y1="44.4" x2="53.1" y2="44.3"/>
  <line class="st4" x1="48.6" y1="42.2" x2="64.3" y2="42.2"/>
  <line class="st4" x1="55.5" y1="44.1" x2="64.3" y2="44.1"/>
  <line class="st4" x1="55.7" y1="40.3" x2="64.3" y2="40.3"/>
  <line class="st4" x1="37.5" y1="36.1" x2="36.2" y2="37.5"/>
  <line class="st4" x1="37.6" y1="38.5" x2="36.2" y2="37.5"/>
  <line class="st4" x1="42.5" y1="35.8" x2="40.5" y2="38.6"/>
  <line class="st4" x1="45.2" y1="36.2" x2="46.6" y2="37.2"/>
  <line class="st4" x1="45.4" y1="38.6" x2="46.6" y2="37.2"/>
  <line class="st4" x1="55.9" y1="46.5" x2="54.3" y2="47.8"/>
  <line class="st4" x1="55.7" y1="48.9" x2="54.3" y2="47.8"/>
  <line class="st4" x1="60.5" y1="46.1" x2="58.6" y2="49"/>
  <line class="st4" x1="63.5" y1="46.5" x2="64.9" y2="47.7"/>
  <line class="st4" x1="63.7" y1="48.9" x2="64.9" y2="47.7"/>
  <line class="st4" x1="45" y1="60.1" x2="44" y2="63.1"/>
  <line class="st4" x1="55.6" y1="60.1" x2="57.3" y2="63.1"/>
  <line class="st4" x1="59.8" y1="53.3" x2="59.9" y2="55.7"/>
  <line class="st4" x1="60.2" y1="58" x2="60" y2="55.7"/>
  <g>
    <path d="M16.9,50.6h.8v1.3h-3.3c0-.5,0-.8.2-1.1,0-.2.2-.3.3-.5s.3-.3.5-.5c.4-.3.6-.5.7-.6.1,0,.2-.2.2-.4s0-.2-.1-.3-.2,0-.3,0c-.3,0-.5.2-.5.6h-1c0-.5.2-.8.5-1s.7-.3,1.1-.3.9,0,1.2.3.5.5.5.9,0,.4-.2.6c-.2.2-.5.4-.9.6-.4.2-.6.3-.7.4-.1,0-.2.2-.3.3h1.3v-.3h0Z"/>
    <path d="M18.5,49.8c0-.7.2-1.2.5-1.5.3-.4.8-.6,1.2-.6s.9.2,1.3.6c.3.4.5.9.5,1.5s-.2,1.2-.5,1.6c-.3.4-.8.5-1.2.5s-.9-.2-1.2-.6c-.3-.4-.5-.9-.5-1.5h0ZM19.8,49.8c0,.5,0,.8.1,1,0,.2.2.2.3.2s.2,0,.3-.2c0-.2.1-.5.1-1s0-.9-.1-1c0-.2-.2-.2-.3-.2s-.2,0-.3.2c0,.2-.1.5-.1,1Z"/>
  </g>
  <g>
    <path d="M80.7,50.4h.8v1.3h-3.3c0-.5,0-.8.2-1.1,0-.2.2-.3.3-.5s.3-.3.5-.5c.4-.3.6-.5.7-.6s.2-.2.2-.4v-.3c0,0-.2,0-.3,0-.3,0-.5.2-.5.6h-1c0-.5.2-.8.5-1s.7-.3,1.1-.3.9,0,1.2.3c.3.2.5.5.5.9s0,.4-.2.6c-.2.2-.5.4-.9.6-.4.2-.6.3-.7.4,0,0-.2.2-.3.3h1.3v-.3h0Z"/>
    <path d="M82.2,50.6h1.1c0,.2.3.3.5.3h.4s.2-.2.2-.4,0-.3-.2-.4h-.4c-.2,0-.4,0-.6.2l-.9-.3v-2.1h3.1v1.1h-.7v-.2h-1.6v.8c.2-.2.5-.2.9-.2s.8,0,1.1.4.4.6.4,1-.2.7-.5,1-.7.4-1.3.4-.9,0-1.2-.3c-.3-.2-.5-.5-.6-.8l.3-.3v-.2Z"/>
  </g>
  <line class="st4" x1="60.1" y1="58" x2="60.2" y2="60.1"/>
  <line class="st4" x1="55.6" y1="58" x2="55.6" y2="60.2"/>
</svg>